<mxfile host="app.diagrams.net" modified="2023-07-14T03:25:24.561Z" agent="Mozilla/5.0 (Windows NT 10.0; Win64; x64) AppleWebKit/537.36 (KHTML, like Gecko) Chrome/91.0.4472.77 Safari/537.36" etag="LmxQzoGqwdITdTnEJri8" version="21.5.0" type="github">
  <diagram id="OJYYb_9SSu5JKfMCdYpM" name="第 1 页">
    <mxGraphModel dx="1500" dy="749" grid="1" gridSize="10" guides="1" tooltips="1" connect="1" arrows="1" fold="1" page="1" pageScale="1" pageWidth="1200" pageHeight="1920" math="0" shadow="0">
      <root>
        <mxCell id="0" />
        <mxCell id="1" parent="0" />
        <mxCell id="mhRZEJvQ30FoYJ7Jb0JR-1" value="" style="html=1;fillColor=#f5f5f5;fontColor=#333333;strokeColor=#666666;" parent="1" vertex="1">
          <mxGeometry x="10" y="60" width="1680" height="1350" as="geometry" />
        </mxCell>
        <mxCell id="mhRZEJvQ30FoYJ7Jb0JR-2" value="Component_tclComponentBase" style="swimlane;fontStyle=1;align=center;verticalAlign=top;childLayout=stackLayout;horizontal=1;startSize=26;horizontalStack=0;resizeParent=1;resizeParentMax=0;resizeLast=0;collapsible=1;marginBottom=0;fillColor=#ffe6cc;strokeColor=#d79b00;" parent="1" vertex="1">
          <mxGeometry x="640" y="1040" width="400" height="320" as="geometry">
            <mxRectangle x="630" y="1350" width="220" height="30" as="alternateBounds" />
          </mxGeometry>
        </mxCell>
        <mxCell id="mhRZEJvQ30FoYJ7Jb0JR-3" value="+ bo_init_sts_:bool " style="text;strokeColor=#82b366;fillColor=#d5e8d4;align=left;verticalAlign=top;spacingLeft=4;spacingRight=4;overflow=hidden;rotatable=0;points=[[0,0.5],[1,0.5]];portConstraint=eastwest;" parent="mhRZEJvQ30FoYJ7Jb0JR-2" vertex="1">
          <mxGeometry y="26" width="400" height="26" as="geometry" />
        </mxCell>
        <mxCell id="mhRZEJvQ30FoYJ7Jb0JR-80" value="+ d_starttime_pre_:bool " style="text;strokeColor=#82b366;fillColor=#d5e8d4;align=left;verticalAlign=top;spacingLeft=4;spacingRight=4;overflow=hidden;rotatable=0;points=[[0,0.5],[1,0.5]];portConstraint=eastwest;" parent="mhRZEJvQ30FoYJ7Jb0JR-2" vertex="1">
          <mxGeometry y="52" width="400" height="26" as="geometry" />
        </mxCell>
        <mxCell id="L8TbZ2yKhSUSz7jvdjla-1" value="+ log_logger_:ara::log::Logger&amp;" style="text;strokeColor=#82b366;fillColor=#d5e8d4;align=left;verticalAlign=top;spacingLeft=4;spacingRight=4;overflow=hidden;rotatable=0;points=[[0,0.5],[1,0.5]];portConstraint=eastwest;" parent="mhRZEJvQ30FoYJ7Jb0JR-2" vertex="1">
          <mxGeometry y="78" width="400" height="26" as="geometry" />
        </mxCell>
        <mxCell id="mhRZEJvQ30FoYJ7Jb0JR-4" value="" style="line;strokeWidth=1;fillColor=none;align=left;verticalAlign=middle;spacingTop=-1;spacingLeft=3;spacingRight=3;rotatable=0;labelPosition=right;points=[];portConstraint=eastwest;" parent="mhRZEJvQ30FoYJ7Jb0JR-2" vertex="1">
          <mxGeometry y="104" width="400" height="8" as="geometry" />
        </mxCell>
        <mxCell id="mhRZEJvQ30FoYJ7Jb0JR-5" value="+ boInitialize(const char*): bool" style="text;strokeColor=#6c8ebf;fillColor=#dae8fc;align=left;verticalAlign=top;spacingLeft=4;spacingRight=4;overflow=hidden;rotatable=0;points=[[0,0.5],[1,0.5]];portConstraint=eastwest;" parent="mhRZEJvQ30FoYJ7Jb0JR-2" vertex="1">
          <mxGeometry y="112" width="400" height="26" as="geometry" />
        </mxCell>
        <mxCell id="mhRZEJvQ30FoYJ7Jb0JR-6" value="+ boProcess(const uint16_t): bool" style="text;strokeColor=#6c8ebf;fillColor=#dae8fc;align=left;verticalAlign=top;spacingLeft=4;spacingRight=4;overflow=hidden;rotatable=0;points=[[0,0.5],[1,0.5]];portConstraint=eastwest;" parent="mhRZEJvQ30FoYJ7Jb0JR-2" vertex="1">
          <mxGeometry y="138" width="400" height="26" as="geometry" />
        </mxCell>
        <mxCell id="mhRZEJvQ30FoYJ7Jb0JR-7" value="+ boReadJson(const char*，Json::Value): bool" style="text;strokeColor=#6c8ebf;fillColor=#dae8fc;align=left;verticalAlign=top;spacingLeft=4;spacingRight=4;overflow=hidden;rotatable=0;points=[[0,0.5],[1,0.5]];portConstraint=eastwest;" parent="mhRZEJvQ30FoYJ7Jb0JR-2" vertex="1">
          <mxGeometry y="164" width="400" height="26" as="geometry" />
        </mxCell>
        <mxCell id="zMi-xVQ4D_88ckj2PTX9-1" value="+ boParameterParser(const char*): bool" style="text;strokeColor=#6c8ebf;fillColor=#dae8fc;align=left;verticalAlign=top;spacingLeft=4;spacingRight=4;overflow=hidden;rotatable=0;points=[[0,0.5],[1,0.5]];portConstraint=eastwest;" parent="mhRZEJvQ30FoYJ7Jb0JR-2" vertex="1">
          <mxGeometry y="190" width="400" height="26" as="geometry" />
        </mxCell>
        <mxCell id="zMi-xVQ4D_88ckj2PTX9-2" value="+ vRegisterApService(): void" style="text;strokeColor=#6c8ebf;fillColor=#dae8fc;align=left;verticalAlign=top;spacingLeft=4;spacingRight=4;overflow=hidden;rotatable=0;points=[[0,0.5],[1,0.5]];portConstraint=eastwest;" parent="mhRZEJvQ30FoYJ7Jb0JR-2" vertex="1">
          <mxGeometry y="216" width="400" height="26" as="geometry" />
        </mxCell>
        <mxCell id="zMi-xVQ4D_88ckj2PTX9-3" value="+ vSentOutApEvent(): void" style="text;strokeColor=#6c8ebf;fillColor=#dae8fc;align=left;verticalAlign=top;spacingLeft=4;spacingRight=4;overflow=hidden;rotatable=0;points=[[0,0.5],[1,0.5]];portConstraint=eastwest;" parent="mhRZEJvQ30FoYJ7Jb0JR-2" vertex="1">
          <mxGeometry y="242" width="400" height="26" as="geometry" />
        </mxCell>
        <mxCell id="zMi-xVQ4D_88ckj2PTX9-4" value="+ boProc(): void" style="text;strokeColor=#6c8ebf;fillColor=#dae8fc;align=left;verticalAlign=top;spacingLeft=4;spacingRight=4;overflow=hidden;rotatable=0;points=[[0,0.5],[1,0.5]];portConstraint=eastwest;" parent="mhRZEJvQ30FoYJ7Jb0JR-2" vertex="1">
          <mxGeometry y="268" width="400" height="26" as="geometry" />
        </mxCell>
        <mxCell id="zMi-xVQ4D_88ckj2PTX9-5" value="+ boInit(): void" style="text;strokeColor=#6c8ebf;fillColor=#dae8fc;align=left;verticalAlign=top;spacingLeft=4;spacingRight=4;overflow=hidden;rotatable=0;points=[[0,0.5],[1,0.5]];portConstraint=eastwest;" parent="mhRZEJvQ30FoYJ7Jb0JR-2" vertex="1">
          <mxGeometry y="294" width="400" height="26" as="geometry" />
        </mxCell>
        <mxCell id="mhRZEJvQ30FoYJ7Jb0JR-8" value="tclLidarDriverApplication" style="swimlane;fontStyle=1;align=center;verticalAlign=top;childLayout=stackLayout;horizontal=1;startSize=26;horizontalStack=0;resizeParent=1;resizeParentMax=0;resizeLast=0;collapsible=1;marginBottom=0;fillColor=#ffe6cc;strokeColor=#d79b00;" parent="1" vertex="1">
          <mxGeometry x="430" y="350" width="410" height="658" as="geometry">
            <mxRectangle x="60" y="38" width="160" height="30" as="alternateBounds" />
          </mxGeometry>
        </mxCell>
        <mxCell id="mhRZEJvQ30FoYJ7Jb0JR-9" value="+ cl_robosense_driver_: robosense::lidar::LidarDriver&lt;stPointType&gt;" style="text;strokeColor=#82b366;fillColor=#d5e8d4;align=left;verticalAlign=top;spacingLeft=4;spacingRight=4;overflow=hidden;rotatable=0;points=[[0,0.5],[1,0.5]];portConstraint=eastwest;" parent="mhRZEJvQ30FoYJ7Jb0JR-8" vertex="1">
          <mxGeometry y="26" width="410" height="26" as="geometry" />
        </mxCell>
        <mxCell id="mhRZEJvQ30FoYJ7Jb0JR-10" value="+ st_robosense_param_: robosense::lidar::RSDriverParam" style="text;strokeColor=#82b366;fillColor=#d5e8d4;align=left;verticalAlign=top;spacingLeft=4;spacingRight=4;overflow=hidden;rotatable=0;points=[[0,0.5],[1,0.5]];portConstraint=eastwest;" parent="mhRZEJvQ30FoYJ7Jb0JR-8" vertex="1">
          <mxGeometry y="52" width="410" height="26" as="geometry" />
        </mxCell>
        <mxCell id="mhRZEJvQ30FoYJ7Jb0JR-11" value="+ cl_fsm_: tclProviderFsm" style="text;strokeColor=#82b366;fillColor=#d5e8d4;align=left;verticalAlign=top;spacingLeft=4;spacingRight=4;overflow=hidden;rotatable=0;points=[[0,0.5],[1,0.5]];portConstraint=eastwest;" parent="mhRZEJvQ30FoYJ7Jb0JR-8" vertex="1">
          <mxGeometry y="78" width="410" height="26" as="geometry" />
        </mxCell>
        <mxCell id="mhRZEJvQ30FoYJ7Jb0JR-12" value="+ p_provider_lidar_: std::unique_ptr&lt;tclProviderLidar&gt;" style="text;strokeColor=#82b366;fillColor=#d5e8d4;align=left;verticalAlign=top;spacingLeft=4;spacingRight=4;overflow=hidden;rotatable=0;points=[[0,0.5],[1,0.5]];portConstraint=eastwest;" parent="mhRZEJvQ30FoYJ7Jb0JR-8" vertex="1">
          <mxGeometry y="104" width="410" height="26" as="geometry" />
        </mxCell>
        <mxCell id="mhRZEJvQ30FoYJ7Jb0JR-13" value="+ u32_instance_id_: string" style="text;strokeColor=#82b366;fillColor=#d5e8d4;align=left;verticalAlign=top;spacingLeft=4;spacingRight=4;overflow=hidden;rotatable=0;points=[[0,0.5],[1,0.5]];portConstraint=eastwest;" parent="mhRZEJvQ30FoYJ7Jb0JR-8" vertex="1">
          <mxGeometry y="130" width="410" height="26" as="geometry" />
        </mxCell>
        <mxCell id="mhRZEJvQ30FoYJ7Jb0JR-14" value="+ sourcePort_: uint32_t" style="text;strokeColor=#82b366;fillColor=#d5e8d4;align=left;verticalAlign=top;spacingLeft=4;spacingRight=4;overflow=hidden;rotatable=0;points=[[0,0.5],[1,0.5]];portConstraint=eastwest;" parent="mhRZEJvQ30FoYJ7Jb0JR-8" vertex="1">
          <mxGeometry y="156" width="410" height="26" as="geometry" />
        </mxCell>
        <mxCell id="mhRZEJvQ30FoYJ7Jb0JR-15" value="+ u32_fsm_instance_id_: uint32_t" style="text;strokeColor=#82b366;fillColor=#d5e8d4;align=left;verticalAlign=top;spacingLeft=4;spacingRight=4;overflow=hidden;rotatable=0;points=[[0,0.5],[1,0.5]];portConstraint=eastwest;" parent="mhRZEJvQ30FoYJ7Jb0JR-8" vertex="1">
          <mxGeometry y="182" width="410" height="26" as="geometry" />
        </mxCell>
        <mxCell id="mhRZEJvQ30FoYJ7Jb0JR-16" value="+ o_logger_: ara::log::Logger&amp;" style="text;strokeColor=#82b366;fillColor=#d5e8d4;align=left;verticalAlign=top;spacingLeft=4;spacingRight=4;overflow=hidden;rotatable=0;points=[[0,0.5],[1,0.5]];portConstraint=eastwest;" parent="mhRZEJvQ30FoYJ7Jb0JR-8" vertex="1">
          <mxGeometry y="208" width="410" height="26" as="geometry" />
        </mxCell>
        <mxCell id="mhRZEJvQ30FoYJ7Jb0JR-18" value="+ u8_lidar_receive_count_: uint8_t" style="text;strokeColor=#82b366;fillColor=#d5e8d4;align=left;verticalAlign=top;spacingLeft=4;spacingRight=4;overflow=hidden;rotatable=0;points=[[0,0.5],[1,0.5]];portConstraint=eastwest;" parent="mhRZEJvQ30FoYJ7Jb0JR-8" vertex="1">
          <mxGeometry y="234" width="410" height="26" as="geometry" />
        </mxCell>
        <mxCell id="mhRZEJvQ30FoYJ7Jb0JR-19" value="+ cl_lidar_receive_mutex_: std::mutex" style="text;strokeColor=#82b366;fillColor=#d5e8d4;align=left;verticalAlign=top;spacingLeft=4;spacingRight=4;overflow=hidden;rotatable=0;points=[[0,0.5],[1,0.5]];portConstraint=eastwest;" parent="mhRZEJvQ30FoYJ7Jb0JR-8" vertex="1">
          <mxGeometry y="260" width="410" height="26" as="geometry" />
        </mxCell>
        <mxCell id="zMi-xVQ4D_88ckj2PTX9-8" value="+ o_ros_pointcloud_origin_pub_: ros::Publisher" style="text;strokeColor=#82b366;fillColor=#d5e8d4;align=left;verticalAlign=top;spacingLeft=4;spacingRight=4;overflow=hidden;rotatable=0;points=[[0,0.5],[1,0.5]];portConstraint=eastwest;" parent="mhRZEJvQ30FoYJ7Jb0JR-8" vertex="1">
          <mxGeometry y="286" width="410" height="26" as="geometry" />
        </mxCell>
        <mxCell id="zMi-xVQ4D_88ckj2PTX9-9" value="+ u16_cycletime_ms_: uint16_t" style="text;strokeColor=#82b366;fillColor=#d5e8d4;align=left;verticalAlign=top;spacingLeft=4;spacingRight=4;overflow=hidden;rotatable=0;points=[[0,0.5],[1,0.5]];portConstraint=eastwest;" parent="mhRZEJvQ30FoYJ7Jb0JR-8" vertex="1">
          <mxGeometry y="312" width="410" height="26" as="geometry" />
        </mxCell>
        <mxCell id="zMi-xVQ4D_88ckj2PTX9-10" value="+ u16_lidar_count_: uint16_t" style="text;strokeColor=#82b366;fillColor=#d5e8d4;align=left;verticalAlign=top;spacingLeft=4;spacingRight=4;overflow=hidden;rotatable=0;points=[[0,0.5],[1,0.5]];portConstraint=eastwest;" parent="mhRZEJvQ30FoYJ7Jb0JR-8" vertex="1">
          <mxGeometry y="338" width="410" height="26" as="geometry" />
        </mxCell>
        <mxCell id="zMi-xVQ4D_88ckj2PTX9-11" value="+ st_last_time_: timespec" style="text;strokeColor=#82b366;fillColor=#d5e8d4;align=left;verticalAlign=top;spacingLeft=4;spacingRight=4;overflow=hidden;rotatable=0;points=[[0,0.5],[1,0.5]];portConstraint=eastwest;" parent="mhRZEJvQ30FoYJ7Jb0JR-8" vertex="1">
          <mxGeometry y="364" width="410" height="26" as="geometry" />
        </mxCell>
        <mxCell id="zMi-xVQ4D_88ckj2PTX9-12" value="+ st_now_time_: timespec" style="text;strokeColor=#82b366;fillColor=#d5e8d4;align=left;verticalAlign=top;spacingLeft=4;spacingRight=4;overflow=hidden;rotatable=0;points=[[0,0.5],[1,0.5]];portConstraint=eastwest;" parent="mhRZEJvQ30FoYJ7Jb0JR-8" vertex="1">
          <mxGeometry y="390" width="410" height="26" as="geometry" />
        </mxCell>
        <mxCell id="zMi-xVQ4D_88ckj2PTX9-13" value="+ st_sensor_time_: timespec" style="text;strokeColor=#82b366;fillColor=#d5e8d4;align=left;verticalAlign=top;spacingLeft=4;spacingRight=4;overflow=hidden;rotatable=0;points=[[0,0.5],[1,0.5]];portConstraint=eastwest;" parent="mhRZEJvQ30FoYJ7Jb0JR-8" vertex="1">
          <mxGeometry y="416" width="410" height="26" as="geometry" />
        </mxCell>
        <mxCell id="zMi-xVQ4D_88ckj2PTX9-14" value="+ st_now_gnss_time_: timespec" style="text;strokeColor=#82b366;fillColor=#d5e8d4;align=left;verticalAlign=top;spacingLeft=4;spacingRight=4;overflow=hidden;rotatable=0;points=[[0,0.5],[1,0.5]];portConstraint=eastwest;" parent="mhRZEJvQ30FoYJ7Jb0JR-8" vertex="1">
          <mxGeometry y="442" width="410" height="26" as="geometry" />
        </mxCell>
        <mxCell id="zMi-xVQ4D_88ckj2PTX9-15" value="+ d_last_time_: double" style="text;strokeColor=#82b366;fillColor=#d5e8d4;align=left;verticalAlign=top;spacingLeft=4;spacingRight=4;overflow=hidden;rotatable=0;points=[[0,0.5],[1,0.5]];portConstraint=eastwest;" parent="mhRZEJvQ30FoYJ7Jb0JR-8" vertex="1">
          <mxGeometry y="468" width="410" height="26" as="geometry" />
        </mxCell>
        <mxCell id="zMi-xVQ4D_88ckj2PTX9-16" value="+ d_now_time_: double" style="text;strokeColor=#82b366;fillColor=#d5e8d4;align=left;verticalAlign=top;spacingLeft=4;spacingRight=4;overflow=hidden;rotatable=0;points=[[0,0.5],[1,0.5]];portConstraint=eastwest;" parent="mhRZEJvQ30FoYJ7Jb0JR-8" vertex="1">
          <mxGeometry y="494" width="410" height="26" as="geometry" />
        </mxCell>
        <mxCell id="zMi-xVQ4D_88ckj2PTX9-17" value="+ d_interval_: double" style="text;strokeColor=#82b366;fillColor=#d5e8d4;align=left;verticalAlign=top;spacingLeft=4;spacingRight=4;overflow=hidden;rotatable=0;points=[[0,0.5],[1,0.5]];portConstraint=eastwest;" parent="mhRZEJvQ30FoYJ7Jb0JR-8" vertex="1">
          <mxGeometry y="520" width="410" height="26" as="geometry" />
        </mxCell>
        <mxCell id="zMi-xVQ4D_88ckj2PTX9-18" value="+ u16_nan_points_num_: uint16_t" style="text;strokeColor=#82b366;fillColor=#d5e8d4;align=left;verticalAlign=top;spacingLeft=4;spacingRight=4;overflow=hidden;rotatable=0;points=[[0,0.5],[1,0.5]];portConstraint=eastwest;" parent="mhRZEJvQ30FoYJ7Jb0JR-8" vertex="1">
          <mxGeometry y="546" width="410" height="26" as="geometry" />
        </mxCell>
        <mxCell id="WhF0ARjHz1xFYmld7zVm-71" value="+ i_n_scan_: int" style="text;strokeColor=#82b366;fillColor=#d5e8d4;align=left;verticalAlign=top;spacingLeft=4;spacingRight=4;overflow=hidden;rotatable=0;points=[[0,0.5],[1,0.5]];portConstraint=eastwest;" parent="mhRZEJvQ30FoYJ7Jb0JR-8" vertex="1">
          <mxGeometry y="572" width="410" height="26" as="geometry" />
        </mxCell>
        <mxCell id="WhF0ARjHz1xFYmld7zVm-72" value="+ i_horizon_scan_: int" style="text;strokeColor=#82b366;fillColor=#d5e8d4;align=left;verticalAlign=top;spacingLeft=4;spacingRight=4;overflow=hidden;rotatable=0;points=[[0,0.5],[1,0.5]];portConstraint=eastwest;" parent="mhRZEJvQ30FoYJ7Jb0JR-8" vertex="1">
          <mxGeometry y="598" width="410" height="26" as="geometry" />
        </mxCell>
        <mxCell id="zMi-xVQ4D_88ckj2PTX9-66" value="..." style="text;strokeColor=#82b366;fillColor=#d5e8d4;align=left;verticalAlign=top;spacingLeft=4;spacingRight=4;overflow=hidden;rotatable=0;points=[[0,0.5],[1,0.5]];portConstraint=eastwest;" parent="mhRZEJvQ30FoYJ7Jb0JR-8" vertex="1">
          <mxGeometry y="624" width="410" height="26" as="geometry" />
        </mxCell>
        <mxCell id="mhRZEJvQ30FoYJ7Jb0JR-20" value="" style="line;strokeWidth=1;fillColor=none;align=left;verticalAlign=middle;spacingTop=-1;spacingLeft=3;spacingRight=3;rotatable=0;labelPosition=right;points=[];portConstraint=eastwest;" parent="mhRZEJvQ30FoYJ7Jb0JR-8" vertex="1">
          <mxGeometry y="650" width="410" height="8" as="geometry" />
        </mxCell>
        <mxCell id="mhRZEJvQ30FoYJ7Jb0JR-33" value="tclRobosenseDriverApplication" style="swimlane;fontStyle=1;align=center;verticalAlign=top;childLayout=stackLayout;horizontal=1;startSize=26;horizontalStack=0;resizeParent=1;resizeParentMax=0;resizeLast=0;collapsible=1;marginBottom=0;fillColor=#ffe6cc;strokeColor=#d79b00;" parent="1" vertex="1">
          <mxGeometry x="1350" y="349" width="300" height="130" as="geometry" />
        </mxCell>
        <mxCell id="WhF0ARjHz1xFYmld7zVm-76" value="+ boInit(): bool" style="text;strokeColor=#6c8ebf;fillColor=#dae8fc;align=left;verticalAlign=top;spacingLeft=4;spacingRight=4;overflow=hidden;rotatable=0;points=[[0,0.5],[1,0.5]];portConstraint=eastwest;" parent="mhRZEJvQ30FoYJ7Jb0JR-33" vertex="1">
          <mxGeometry y="26" width="300" height="26" as="geometry" />
        </mxCell>
        <mxCell id="WhF0ARjHz1xFYmld7zVm-88" value="+ vCallbackPointCloud(): void" style="text;strokeColor=#6c8ebf;fillColor=#dae8fc;align=left;verticalAlign=top;spacingLeft=4;spacingRight=4;overflow=hidden;rotatable=0;points=[[0,0.5],[1,0.5]];portConstraint=eastwest;" parent="mhRZEJvQ30FoYJ7Jb0JR-33" vertex="1">
          <mxGeometry y="52" width="300" height="26" as="geometry" />
        </mxCell>
        <mxCell id="WhF0ARjHz1xFYmld7zVm-90" value="+ vCallbackException(const robosense::lidar::Error&amp;): void" style="text;strokeColor=#6c8ebf;fillColor=#dae8fc;align=left;verticalAlign=top;spacingLeft=4;spacingRight=4;overflow=hidden;rotatable=0;points=[[0,0.5],[1,0.5]];portConstraint=eastwest;" parent="mhRZEJvQ30FoYJ7Jb0JR-33" vertex="1">
          <mxGeometry y="78" width="300" height="26" as="geometry" />
        </mxCell>
        <mxCell id="WhF0ARjHz1xFYmld7zVm-77" value="+ vReadPointCloud(const robosense::lidar::PointCloudMsg&lt;stPointType&gt;&amp;&#xa;): void" style="text;strokeColor=#6c8ebf;fillColor=#dae8fc;align=left;verticalAlign=top;spacingLeft=4;spacingRight=4;overflow=hidden;rotatable=0;points=[[0,0.5],[1,0.5]];portConstraint=eastwest;" parent="mhRZEJvQ30FoYJ7Jb0JR-33" vertex="1">
          <mxGeometry y="104" width="300" height="26" as="geometry" />
        </mxCell>
        <mxCell id="mhRZEJvQ30FoYJ7Jb0JR-47" value="main method" style="html=1;fillColor=#fff2cc;strokeColor=#d6b656;" parent="1" vertex="1">
          <mxGeometry x="750" y="120" width="190" height="50" as="geometry" />
        </mxCell>
        <mxCell id="zMi-xVQ4D_88ckj2PTX9-21" value="tclLidarDriverApplication" style="swimlane;fontStyle=1;align=center;verticalAlign=top;childLayout=stackLayout;horizontal=1;startSize=26;horizontalStack=0;resizeParent=1;resizeParentMax=0;resizeLast=0;collapsible=1;marginBottom=0;fillColor=#ffe6cc;strokeColor=#d79b00;" parent="1" vertex="1">
          <mxGeometry x="840" y="350" width="410" height="494" as="geometry">
            <mxRectangle x="60" y="38" width="160" height="30" as="alternateBounds" />
          </mxGeometry>
        </mxCell>
        <mxCell id="zMi-xVQ4D_88ckj2PTX9-49" value="+ boInit(): bool" style="text;strokeColor=#6c8ebf;fillColor=#dae8fc;align=left;verticalAlign=top;spacingLeft=4;spacingRight=4;overflow=hidden;rotatable=0;points=[[0,0.5],[1,0.5]];portConstraint=eastwest;" parent="zMi-xVQ4D_88ckj2PTX9-21" vertex="1">
          <mxGeometry y="26" width="410" height="26" as="geometry" />
        </mxCell>
        <mxCell id="zMi-xVQ4D_88ckj2PTX9-50" value="+ boParameterParser(const char*): bool" style="text;strokeColor=#6c8ebf;fillColor=#dae8fc;align=left;verticalAlign=top;spacingLeft=4;spacingRight=4;overflow=hidden;rotatable=0;points=[[0,0.5],[1,0.5]];portConstraint=eastwest;" parent="zMi-xVQ4D_88ckj2PTX9-21" vertex="1">
          <mxGeometry y="52" width="410" height="26" as="geometry" />
        </mxCell>
        <mxCell id="zMi-xVQ4D_88ckj2PTX9-51" value="+ vRegisterApService(): void" style="text;strokeColor=#6c8ebf;fillColor=#dae8fc;align=left;verticalAlign=top;spacingLeft=4;spacingRight=4;overflow=hidden;rotatable=0;points=[[0,0.5],[1,0.5]];portConstraint=eastwest;" parent="zMi-xVQ4D_88ckj2PTX9-21" vertex="1">
          <mxGeometry y="78" width="410" height="26" as="geometry" />
        </mxCell>
        <mxCell id="zMi-xVQ4D_88ckj2PTX9-52" value="+ boProc(): bool" style="text;strokeColor=#6c8ebf;fillColor=#dae8fc;align=left;verticalAlign=top;spacingLeft=4;spacingRight=4;overflow=hidden;rotatable=0;points=[[0,0.5],[1,0.5]];portConstraint=eastwest;" parent="zMi-xVQ4D_88ckj2PTX9-21" vertex="1">
          <mxGeometry y="104" width="410" height="26" as="geometry" />
        </mxCell>
        <mxCell id="zMi-xVQ4D_88ckj2PTX9-53" value="+ vSentOutApEvent(): void" style="text;strokeColor=#6c8ebf;fillColor=#dae8fc;align=left;verticalAlign=top;spacingLeft=4;spacingRight=4;overflow=hidden;rotatable=0;points=[[0,0.5],[1,0.5]];portConstraint=eastwest;" parent="zMi-xVQ4D_88ckj2PTX9-21" vertex="1">
          <mxGeometry y="130" width="410" height="26" as="geometry" />
        </mxCell>
        <mxCell id="zMi-xVQ4D_88ckj2PTX9-54" value="+ u16GetValueCycletimeMs(): uint16_t" style="text;strokeColor=#6c8ebf;fillColor=#dae8fc;align=left;verticalAlign=top;spacingLeft=4;spacingRight=4;overflow=hidden;rotatable=0;points=[[0,0.5],[1,0.5]];portConstraint=eastwest;" parent="zMi-xVQ4D_88ckj2PTX9-21" vertex="1">
          <mxGeometry y="156" width="410" height="26" as="geometry" />
        </mxCell>
        <mxCell id="zMi-xVQ4D_88ckj2PTX9-57" value="+ vFpsMonitor(): void" style="text;strokeColor=#6c8ebf;fillColor=#dae8fc;align=left;verticalAlign=top;spacingLeft=4;spacingRight=4;overflow=hidden;rotatable=0;points=[[0,0.5],[1,0.5]];portConstraint=eastwest;" parent="zMi-xVQ4D_88ckj2PTX9-21" vertex="1">
          <mxGeometry y="182" width="410" height="26" as="geometry" />
        </mxCell>
        <mxCell id="zMi-xVQ4D_88ckj2PTX9-58" value="+ vDataQualityMonitor(): void" style="text;strokeColor=#6c8ebf;fillColor=#dae8fc;align=left;verticalAlign=top;spacingLeft=4;spacingRight=4;overflow=hidden;rotatable=0;points=[[0,0.5],[1,0.5]];portConstraint=eastwest;" parent="zMi-xVQ4D_88ckj2PTX9-21" vertex="1">
          <mxGeometry y="208" width="410" height="26" as="geometry" />
        </mxCell>
        <mxCell id="zMi-xVQ4D_88ckj2PTX9-68" value="+ vSensorTimeMonitor(timespec *，timespec *，double): void" style="text;strokeColor=#6c8ebf;fillColor=#dae8fc;align=left;verticalAlign=top;spacingLeft=4;spacingRight=4;overflow=hidden;rotatable=0;points=[[0,0.5],[1,0.5]];portConstraint=eastwest;" parent="zMi-xVQ4D_88ckj2PTX9-21" vertex="1">
          <mxGeometry y="234" width="410" height="26" as="geometry" />
        </mxCell>
        <mxCell id="zMi-xVQ4D_88ckj2PTX9-70" value="+ vRosDataPublish(const tstDriverLidarMsg&amp;，const robosense::lidar::PointCloudMsg&lt;stPointType&gt;&amp;，ros::Publisher&amp;): void" style="text;strokeColor=#6c8ebf;fillColor=#dae8fc;align=left;verticalAlign=top;spacingLeft=4;spacingRight=4;overflow=hidden;rotatable=0;points=[[0,0.5],[1,0.5]];portConstraint=eastwest;" parent="zMi-xVQ4D_88ckj2PTX9-21" vertex="1">
          <mxGeometry y="260" width="410" height="26" as="geometry" />
        </mxCell>
        <mxCell id="zMi-xVQ4D_88ckj2PTX9-71" value="+ vRosOriginDataPublish(const tstDriverLidarMsg&amp;，const robosense::lidar::PointCloudMsg&lt;stPointType&gt;&amp;，ros::Publisher&amp;): void" style="text;strokeColor=#6c8ebf;fillColor=#dae8fc;align=left;verticalAlign=top;spacingLeft=4;spacingRight=4;overflow=hidden;rotatable=0;points=[[0,0.5],[1,0.5]];portConstraint=eastwest;" parent="zMi-xVQ4D_88ckj2PTX9-21" vertex="1">
          <mxGeometry y="286" width="410" height="26" as="geometry" />
        </mxCell>
        <mxCell id="zMi-xVQ4D_88ckj2PTX9-72" value="+ vFaultHandler(): void" style="text;strokeColor=#6c8ebf;fillColor=#dae8fc;align=left;verticalAlign=top;spacingLeft=4;spacingRight=4;overflow=hidden;rotatable=0;points=[[0,0.5],[1,0.5]];portConstraint=eastwest;" parent="zMi-xVQ4D_88ckj2PTX9-21" vertex="1">
          <mxGeometry y="312" width="410" height="26" as="geometry" />
        </mxCell>
        <mxCell id="zMi-xVQ4D_88ckj2PTX9-73" value="+ vDataReceiveMonitor(bool&amp;): void" style="text;strokeColor=#6c8ebf;fillColor=#dae8fc;align=left;verticalAlign=top;spacingLeft=4;spacingRight=4;overflow=hidden;rotatable=0;points=[[0,0.5],[1,0.5]];portConstraint=eastwest;" parent="zMi-xVQ4D_88ckj2PTX9-21" vertex="1">
          <mxGeometry y="338" width="410" height="26" as="geometry" />
        </mxCell>
        <mxCell id="zMi-xVQ4D_88ckj2PTX9-75" value="+ vFsmSend(uint8_t，std::string): void" style="text;strokeColor=#6c8ebf;fillColor=#dae8fc;align=left;verticalAlign=top;spacingLeft=4;spacingRight=4;overflow=hidden;rotatable=0;points=[[0,0.5],[1,0.5]];portConstraint=eastwest;" parent="zMi-xVQ4D_88ckj2PTX9-21" vertex="1">
          <mxGeometry y="364" width="410" height="26" as="geometry" />
        </mxCell>
        <mxCell id="WhF0ARjHz1xFYmld7zVm-1" value="+ vAllocateMemory(): void" style="text;strokeColor=#6c8ebf;fillColor=#dae8fc;align=left;verticalAlign=top;spacingLeft=4;spacingRight=4;overflow=hidden;rotatable=0;points=[[0,0.5],[1,0.5]];portConstraint=eastwest;" parent="zMi-xVQ4D_88ckj2PTX9-21" vertex="1">
          <mxGeometry y="390" width="410" height="26" as="geometry" />
        </mxCell>
        <mxCell id="WhF0ARjHz1xFYmld7zVm-2" value="+ vResetParameters(): void" style="text;strokeColor=#6c8ebf;fillColor=#dae8fc;align=left;verticalAlign=top;spacingLeft=4;spacingRight=4;overflow=hidden;rotatable=0;points=[[0,0.5],[1,0.5]];portConstraint=eastwest;" parent="zMi-xVQ4D_88ckj2PTX9-21" vertex="1">
          <mxGeometry y="416" width="410" height="26" as="geometry" />
        </mxCell>
        <mxCell id="WhF0ARjHz1xFYmld7zVm-3" value="+ vReadPointCloud(const robosense::lidar::PointCloudMsg&lt;stPointType&gt;&amp;&#xa;): void" style="text;strokeColor=#6c8ebf;fillColor=#dae8fc;align=left;verticalAlign=top;spacingLeft=4;spacingRight=4;overflow=hidden;rotatable=0;points=[[0,0.5],[1,0.5]];portConstraint=eastwest;" parent="zMi-xVQ4D_88ckj2PTX9-21" vertex="1">
          <mxGeometry y="442" width="410" height="26" as="geometry" />
        </mxCell>
        <mxCell id="WhF0ARjHz1xFYmld7zVm-68" value="+ vPublishCloud(const robosense::lidar::PointCloudMsg&lt;stPointType&gt;&amp;): void" style="text;strokeColor=#6c8ebf;fillColor=#dae8fc;align=left;verticalAlign=top;spacingLeft=4;spacingRight=4;overflow=hidden;rotatable=0;points=[[0,0.5],[1,0.5]];portConstraint=eastwest;" parent="zMi-xVQ4D_88ckj2PTX9-21" vertex="1">
          <mxGeometry y="468" width="410" height="26" as="geometry" />
        </mxCell>
        <mxCell id="WhF0ARjHz1xFYmld7zVm-80" value="tclOusterDriverApplication" style="swimlane;fontStyle=1;align=center;verticalAlign=top;childLayout=stackLayout;horizontal=1;startSize=26;horizontalStack=0;resizeParent=1;resizeParentMax=0;resizeLast=0;collapsible=1;marginBottom=0;fillColor=#ffe6cc;strokeColor=#d79b00;" parent="1" vertex="1">
          <mxGeometry x="40" y="350" width="300" height="156" as="geometry" />
        </mxCell>
        <mxCell id="WhF0ARjHz1xFYmld7zVm-82" value="+ boInit(): bool" style="text;strokeColor=#6c8ebf;fillColor=#dae8fc;align=left;verticalAlign=top;spacingLeft=4;spacingRight=4;overflow=hidden;rotatable=0;points=[[0,0.5],[1,0.5]];portConstraint=eastwest;" parent="WhF0ARjHz1xFYmld7zVm-80" vertex="1">
          <mxGeometry y="26" width="300" height="26" as="geometry" />
        </mxCell>
        <mxCell id="WhF0ARjHz1xFYmld7zVm-86" value="+ vCallbackSensor(): void" style="text;strokeColor=#6c8ebf;fillColor=#dae8fc;align=left;verticalAlign=top;spacingLeft=4;spacingRight=4;overflow=hidden;rotatable=0;points=[[0,0.5],[1,0.5]];portConstraint=eastwest;" parent="WhF0ARjHz1xFYmld7zVm-80" vertex="1">
          <mxGeometry y="52" width="300" height="26" as="geometry" />
        </mxCell>
        <mxCell id="WhF0ARjHz1xFYmld7zVm-87" value="+ vCallbackPackets(): void" style="text;strokeColor=#6c8ebf;fillColor=#dae8fc;align=left;verticalAlign=top;spacingLeft=4;spacingRight=4;overflow=hidden;rotatable=0;points=[[0,0.5],[1,0.5]];portConstraint=eastwest;" parent="WhF0ARjHz1xFYmld7zVm-80" vertex="1">
          <mxGeometry y="78" width="300" height="26" as="geometry" />
        </mxCell>
        <mxCell id="WhF0ARjHz1xFYmld7zVm-89" value="+ vCallbackPointCloud(): void" style="text;strokeColor=#6c8ebf;fillColor=#dae8fc;align=left;verticalAlign=top;spacingLeft=4;spacingRight=4;overflow=hidden;rotatable=0;points=[[0,0.5],[1,0.5]];portConstraint=eastwest;" parent="WhF0ARjHz1xFYmld7zVm-80" vertex="1">
          <mxGeometry y="104" width="300" height="26" as="geometry" />
        </mxCell>
        <mxCell id="WhF0ARjHz1xFYmld7zVm-83" value="+ vReadPointCloud(const robosense::lidar::PointCloudMsg&lt;stPointType&gt;&amp;&#xa;): void" style="text;strokeColor=#6c8ebf;fillColor=#dae8fc;align=left;verticalAlign=top;spacingLeft=4;spacingRight=4;overflow=hidden;rotatable=0;points=[[0,0.5],[1,0.5]];portConstraint=eastwest;" parent="WhF0ARjHz1xFYmld7zVm-80" vertex="1">
          <mxGeometry y="130" width="300" height="26" as="geometry" />
        </mxCell>
        <mxCell id="WhF0ARjHz1xFYmld7zVm-91" value="tclLidarTypeApplication" style="swimlane;fontStyle=1;align=center;verticalAlign=top;childLayout=stackLayout;horizontal=1;startSize=26;horizontalStack=0;resizeParent=1;resizeParentMax=0;resizeLast=0;collapsible=1;marginBottom=0;fillColor=#ffe6cc;strokeColor=#d79b00;" parent="1" vertex="1">
          <mxGeometry x="695" y="230" width="300" height="60" as="geometry" />
        </mxCell>
        <mxCell id="WhF0ARjHz1xFYmld7zVm-92" value="" style="line;strokeWidth=1;fillColor=none;align=left;verticalAlign=middle;spacingTop=-1;spacingLeft=3;spacingRight=3;rotatable=0;labelPosition=right;points=[];portConstraint=eastwest;" parent="WhF0ARjHz1xFYmld7zVm-91" vertex="1">
          <mxGeometry y="26" width="300" height="8" as="geometry" />
        </mxCell>
        <mxCell id="WhF0ARjHz1xFYmld7zVm-93" value="+ sGetLIdarType(const char*): std::string" style="text;strokeColor=#6c8ebf;fillColor=#dae8fc;align=left;verticalAlign=top;spacingLeft=4;spacingRight=4;overflow=hidden;rotatable=0;points=[[0,0.5],[1,0.5]];portConstraint=eastwest;" parent="WhF0ARjHz1xFYmld7zVm-91" vertex="1">
          <mxGeometry y="34" width="300" height="26" as="geometry" />
        </mxCell>
        <mxCell id="WhF0ARjHz1xFYmld7zVm-102" value="" style="endArrow=none;html=1;edgeStyle=orthogonalEdgeStyle;rounded=0;exitX=0;exitY=0.5;exitDx=0;exitDy=0;entryX=1;entryY=0.5;entryDx=0;entryDy=0;" parent="1" source="mhRZEJvQ30FoYJ7Jb0JR-11" target="WhF0ARjHz1xFYmld7zVm-87" edge="1">
          <mxGeometry relative="1" as="geometry">
            <mxPoint x="150" y="600" as="sourcePoint" />
            <mxPoint x="360" y="441" as="targetPoint" />
          </mxGeometry>
        </mxCell>
        <mxCell id="WhF0ARjHz1xFYmld7zVm-103" value="parent" style="edgeLabel;resizable=0;html=1;align=left;verticalAlign=bottom;" parent="WhF0ARjHz1xFYmld7zVm-102" connectable="0" vertex="1">
          <mxGeometry x="-1" relative="1" as="geometry">
            <mxPoint x="-40" as="offset" />
          </mxGeometry>
        </mxCell>
        <mxCell id="WhF0ARjHz1xFYmld7zVm-104" value="child" style="edgeLabel;resizable=0;html=1;align=right;verticalAlign=bottom;" parent="WhF0ARjHz1xFYmld7zVm-102" connectable="0" vertex="1">
          <mxGeometry x="1" relative="1" as="geometry">
            <mxPoint x="30" as="offset" />
          </mxGeometry>
        </mxCell>
        <mxCell id="WhF0ARjHz1xFYmld7zVm-105" value="" style="endArrow=none;html=1;edgeStyle=orthogonalEdgeStyle;rounded=0;entryX=0;entryY=0.5;entryDx=0;entryDy=0;" parent="1" target="WhF0ARjHz1xFYmld7zVm-90" edge="1">
          <mxGeometry relative="1" as="geometry">
            <mxPoint x="1250" y="440" as="sourcePoint" />
            <mxPoint x="370" y="451" as="targetPoint" />
          </mxGeometry>
        </mxCell>
        <mxCell id="WhF0ARjHz1xFYmld7zVm-106" value="parent" style="edgeLabel;resizable=0;html=1;align=left;verticalAlign=bottom;" parent="WhF0ARjHz1xFYmld7zVm-105" connectable="0" vertex="1">
          <mxGeometry x="-1" relative="1" as="geometry" />
        </mxCell>
        <mxCell id="WhF0ARjHz1xFYmld7zVm-107" value="child" style="edgeLabel;resizable=0;html=1;align=right;verticalAlign=bottom;" parent="WhF0ARjHz1xFYmld7zVm-105" connectable="0" vertex="1">
          <mxGeometry x="1" relative="1" as="geometry" />
        </mxCell>
        <mxCell id="WhF0ARjHz1xFYmld7zVm-108" value="" style="endArrow=none;html=1;edgeStyle=orthogonalEdgeStyle;rounded=0;exitX=0.5;exitY=0;exitDx=0;exitDy=0;entryX=0.003;entryY=0.969;entryDx=0;entryDy=0;entryPerimeter=0;" parent="1" source="mhRZEJvQ30FoYJ7Jb0JR-2" target="WhF0ARjHz1xFYmld7zVm-68" edge="1">
          <mxGeometry relative="1" as="geometry">
            <mxPoint x="280" y="1180" as="sourcePoint" />
            <mxPoint x="440" y="1180" as="targetPoint" />
          </mxGeometry>
        </mxCell>
        <mxCell id="WhF0ARjHz1xFYmld7zVm-109" value="parent" style="edgeLabel;resizable=0;html=1;align=left;verticalAlign=bottom;" parent="WhF0ARjHz1xFYmld7zVm-108" connectable="0" vertex="1">
          <mxGeometry x="-1" relative="1" as="geometry" />
        </mxCell>
        <mxCell id="WhF0ARjHz1xFYmld7zVm-110" value="child" style="edgeLabel;resizable=0;html=1;align=right;verticalAlign=bottom;" parent="WhF0ARjHz1xFYmld7zVm-108" connectable="0" vertex="1">
          <mxGeometry x="1" relative="1" as="geometry">
            <mxPoint y="17" as="offset" />
          </mxGeometry>
        </mxCell>
        <mxCell id="WhF0ARjHz1xFYmld7zVm-111" value="Use" style="endArrow=open;endSize=12;dashed=1;html=1;rounded=0;exitX=0;exitY=0.5;exitDx=0;exitDy=0;entryX=0.5;entryY=0;entryDx=0;entryDy=0;" parent="1" source="mhRZEJvQ30FoYJ7Jb0JR-47" target="WhF0ARjHz1xFYmld7zVm-80" edge="1">
          <mxGeometry width="160" relative="1" as="geometry">
            <mxPoint x="390" y="230" as="sourcePoint" />
            <mxPoint x="550" y="230" as="targetPoint" />
          </mxGeometry>
        </mxCell>
        <mxCell id="WhF0ARjHz1xFYmld7zVm-112" value="Use" style="endArrow=open;endSize=12;dashed=1;html=1;rounded=0;exitX=1;exitY=0.5;exitDx=0;exitDy=0;entryX=0.5;entryY=0;entryDx=0;entryDy=0;" parent="1" source="mhRZEJvQ30FoYJ7Jb0JR-47" target="mhRZEJvQ30FoYJ7Jb0JR-33" edge="1">
          <mxGeometry width="160" relative="1" as="geometry">
            <mxPoint x="900" y="190" as="sourcePoint" />
            <mxPoint x="1060" y="190" as="targetPoint" />
          </mxGeometry>
        </mxCell>
        <mxCell id="WhF0ARjHz1xFYmld7zVm-113" value="Use" style="endArrow=open;endSize=12;dashed=1;html=1;rounded=0;exitX=0.5;exitY=1;exitDx=0;exitDy=0;" parent="1" source="mhRZEJvQ30FoYJ7Jb0JR-47" target="WhF0ARjHz1xFYmld7zVm-91" edge="1">
          <mxGeometry width="160" relative="1" as="geometry">
            <mxPoint x="890" y="200" as="sourcePoint" />
            <mxPoint x="1050" y="200" as="targetPoint" />
          </mxGeometry>
        </mxCell>
      </root>
    </mxGraphModel>
  </diagram>
</mxfile>
